<svg width="48" height="48" viewBox="0 0 48 48" fill="none" xmlns="http://www.w3.org/2000/svg">
<g clip-path="url(#clip0_85_2)">
<path d="M32.0544 10.772L4.744 10.828C2.128 10.828 0 12.956 0 15.572V32.4848C0 35.1008 2.128 37.228 4.744 37.228H9.6V45.228C9.6 45.5584 9.8032 45.8552 10.112 45.9744C10.2056 46.0104 10.3032 46.028 10.4 46.028C10.6208 46.028 10.8376 45.936 10.992 45.7664L18.7552 37.2264L32.056 37.172C34.672 37.172 36.8 35.044 36.8 32.4288V15.516C36.8 12.9 34.672 10.772 32.0544 10.772ZM8 18.772H18.4C18.8424 18.772 19.2 19.1304 19.2 19.572C19.2 20.0136 18.8424 20.372 18.4 20.372H8C7.5576 20.372 7.2 20.0136 7.2 19.572C7.2 19.1304 7.5576 18.772 8 18.772ZM28.8 29.972H8C7.5576 29.972 7.2 29.6136 7.2 29.172C7.2 28.7304 7.5576 28.372 8 28.372H28.8C29.2424 28.372 29.6 28.7304 29.6 29.172C29.6 29.6136 29.2424 29.972 28.8 29.972ZM28.8 25.172H8C7.5576 25.172 7.2 24.8136 7.2 24.372C7.2 23.9304 7.5576 23.572 8 23.572H28.8C29.2424 23.572 29.6 23.9304 29.6 24.372C29.6 24.8136 29.2424 25.172 28.8 25.172Z" fill="#4B68FF"/>
<path d="M43.2576 2.02798L15.944 1.97198C13.328 1.97198 11.2 4.09998 11.2 6.71598V9.21518L32.0512 9.17198C35.5528 9.17198 38.4 12.0176 38.4 15.516V32.372V32.4288V34.0984L41.008 36.9672C41.1624 37.1368 41.3792 37.2288 41.6 37.2288C41.6968 37.2288 41.7944 37.2112 41.888 37.1752C42.1968 37.056 42.4 36.7592 42.4 36.4288V28.4288H43.256C45.872 28.4288 48 26.3008 48 23.6856V6.77198C48 4.15598 45.872 2.02798 43.2576 2.02798Z" fill="#4B68FF"/>
</g>
<defs>
<clipPath id="clip0_85_2">
<rect width="48" height="48" fill="white"/>
</clipPath>
</defs>
</svg>
